<mxfile host="65bd71144e">
    <diagram id="gYYenzRIOGtVWtctPW4i" name="Page-1">
        <mxGraphModel dx="1113" dy="784" grid="1" gridSize="10" guides="1" tooltips="1" connect="1" arrows="1" fold="1" page="1" pageScale="1" pageWidth="1169" pageHeight="827" background="#ffffff" math="0" shadow="0">
            <root>
                <mxCell id="0"/>
                <mxCell id="1" parent="0"/>
                <mxCell id="31" value="" style="group" parent="1" vertex="1" connectable="0">
                    <mxGeometry width="960" height="620" as="geometry"/>
                </mxCell>
                <mxCell id="30" value="" style="rounded=0;whiteSpace=wrap;html=1;labelBackgroundColor=#FFFFFF;fontColor=#000000;fillColor=#FFFFFF;container=0;strokeColor=none;" parent="31" vertex="1">
                    <mxGeometry width="960" height="620" as="geometry"/>
                </mxCell>
                <object placeholders="1" c4Name="Cliente Final" c4Type="Pessoa" c4Description="Cliente do sistema que efetua compras e recebe as notificações do transporte de seu(s) respectivo(s) pedido(s)" label="&lt;font style=&quot;font-size: 16px&quot;&gt;&lt;b&gt;%c4Name%&lt;/b&gt;&lt;/font&gt;&lt;div&gt;[%c4Type%]&lt;/div&gt;&lt;br&gt;&lt;div&gt;&lt;font style=&quot;font-size: 11px&quot;&gt;&lt;font color=&quot;#cccccc&quot;&gt;%c4Description%&lt;/font&gt;&lt;/div&gt;" id="3">
                    <mxCell style="html=1;fontSize=11;dashed=0;whiteSpace=wrap;fillColor=#083F75;strokeColor=#06315C;fontColor=#ffffff;shape=mxgraph.c4.person2;align=center;metaEdit=1;points=[[0.5,0,0],[1,0.5,0],[1,0.75,0],[0.75,1,0],[0.5,1,0],[0.25,1,0],[0,0.75,0],[0,0.5,0]];resizable=0;container=0;" parent="31" vertex="1">
                        <mxGeometry x="730" y="10" width="200" height="180" as="geometry"/>
                    </mxCell>
                </object>
                <mxCell id="9" value="Tracking do transporte&lt;br&gt;do pedido&lt;br&gt;[SMTP]" style="edgeStyle=none;html=1;dashed=1;dashPattern=12 12;exitX=1;exitY=0.25;exitDx=0;exitDy=0;exitPerimeter=0;strokeColor=#000000;fontColor=#000000;labelBackgroundColor=#FFFFFF;" parent="31" source="4" target="3" edge="1">
                    <mxGeometry x="0.6364" relative="1" as="geometry">
                        <Array as="points">
                            <mxPoint x="830" y="320"/>
                        </Array>
                        <mxPoint as="offset"/>
                    </mxGeometry>
                </mxCell>
                <object placeholders="1" c4Name="TMS" c4Type="Sistema" c4Description="Gerenciamento de&#10;transporte e carregamento" label="&lt;font style=&quot;font-size: 16px&quot;&gt;&lt;b&gt;%c4Name%&lt;/b&gt;&lt;/font&gt;&lt;div&gt;[%c4Type%]&lt;/div&gt;&lt;br&gt;&lt;div&gt;&lt;font style=&quot;font-size: 11px&quot;&gt;&lt;font color=&quot;#cccccc&quot;&gt;%c4Description%&lt;/font&gt;&lt;/div&gt;" id="4">
                    <mxCell style="rounded=1;whiteSpace=wrap;html=1;labelBackgroundColor=none;fillColor=#1061B0;fontColor=#ffffff;align=center;arcSize=10;strokeColor=#0D5091;metaEdit=1;resizable=0;points=[[0.25,0,0],[0.5,0,0],[0.75,0,0],[1,0.25,0],[1,0.5,0],[1,0.75,0],[0.75,1,0],[0.5,1,0],[0.25,1,0],[0,0.75,0],[0,0.5,0],[0,0.25,0]];container=0;" parent="31" vertex="1">
                        <mxGeometry x="390" y="290" width="240" height="120" as="geometry"/>
                    </mxCell>
                </object>
                <mxCell id="25" value="NF do pedido&lt;br&gt;[Banco a Banco]" style="edgeStyle=none;html=1;entryX=0;entryY=0.25;entryDx=0;entryDy=0;entryPerimeter=0;dashed=1;dashPattern=12 12;exitX=1;exitY=0.25;exitDx=0;exitDy=0;exitPerimeter=0;strokeColor=#000000;fontColor=#000000;labelBackgroundColor=#FFFFFF;" parent="31" source="11" target="4" edge="1">
                    <mxGeometry relative="1" as="geometry"/>
                </mxCell>
                <object placeholders="1" c4Name="ERP" c4Type="Sistema" c4Description="Gerenciamento da&#10;venda e operação" label="&lt;font style=&quot;font-size: 16px&quot;&gt;&lt;b&gt;%c4Name%&lt;/b&gt;&lt;/font&gt;&lt;div&gt;[%c4Type%]&lt;/div&gt;&lt;br&gt;&lt;div&gt;&lt;font style=&quot;font-size: 11px&quot;&gt;&lt;font color=&quot;#cccccc&quot;&gt;%c4Description%&lt;/font&gt;&lt;/div&gt;" id="11">
                    <mxCell style="rounded=1;whiteSpace=wrap;html=1;labelBackgroundColor=none;fillColor=#8C8496;fontColor=#ffffff;align=center;arcSize=10;strokeColor=#736782;metaEdit=1;resizable=0;points=[[0.25,0,0],[0.5,0,0],[0.75,0,0],[1,0.25,0],[1,0.5,0],[1,0.75,0],[0.75,1,0],[0.5,1,0],[0.25,1,0],[0,0.75,0],[0,0.5,0],[0,0.25,0]];container=0;" parent="31" vertex="1">
                        <mxGeometry x="10" y="290" width="240" height="120" as="geometry"/>
                    </mxCell>
                </object>
                <mxCell id="12" style="edgeStyle=none;html=1;dashed=1;dashPattern=12 12;entryX=1;entryY=0.75;entryDx=0;entryDy=0;entryPerimeter=0;exitX=0;exitY=0.75;exitDx=0;exitDy=0;exitPerimeter=0;strokeColor=#000000;" parent="31" source="4" target="11" edge="1">
                    <mxGeometry relative="1" as="geometry"/>
                </mxCell>
                <mxCell id="17" value="Envia os dados&lt;br&gt;do faturamento&lt;br&gt;[Banco a Banco]" style="edgeLabel;html=1;align=center;verticalAlign=middle;resizable=0;points=[];fontColor=#000000;labelBackgroundColor=#FFFFFF;container=0;" parent="12" vertex="1" connectable="0">
                    <mxGeometry x="-0.1075" y="-1" relative="1" as="geometry">
                        <mxPoint as="offset"/>
                    </mxGeometry>
                </mxCell>
                <mxCell id="14" value="Dados do pedido&lt;br&gt;para transporte&lt;br&gt;[Banco a Banco]" style="edgeStyle=none;html=1;entryX=0.5;entryY=1;entryDx=0;entryDy=0;entryPerimeter=0;dashed=1;dashPattern=12 12;strokeColor=#000000;fontColor=#000000;labelBackgroundColor=#FFFFFF;" parent="31" source="13" target="4" edge="1">
                    <mxGeometry relative="1" as="geometry"/>
                </mxCell>
                <object placeholders="1" c4Name="WMS" c4Type="Sistema" c4Description="Gerencia o estoque e&#10;armazenamento dos produtos" label="&lt;font style=&quot;font-size: 16px&quot;&gt;&lt;b&gt;%c4Name%&lt;/b&gt;&lt;/font&gt;&lt;div&gt;[%c4Type%]&lt;/div&gt;&lt;br&gt;&lt;div&gt;&lt;font style=&quot;font-size: 11px&quot;&gt;&lt;font color=&quot;#cccccc&quot;&gt;%c4Description%&lt;/font&gt;&lt;/div&gt;" id="13">
                    <mxCell style="rounded=1;whiteSpace=wrap;html=1;labelBackgroundColor=none;fillColor=#8C8496;fontColor=#ffffff;align=center;arcSize=10;strokeColor=#736782;metaEdit=1;resizable=0;points=[[0.25,0,0],[0.5,0,0],[0.75,0,0],[1,0.25,0],[1,0.5,0],[1,0.75,0],[0.75,1,0],[0.5,1,0],[0.25,1,0],[0,0.75,0],[0,0.5,0],[0,0.25,0]];container=0;" parent="31" vertex="1">
                        <mxGeometry x="390" y="490" width="240" height="120" as="geometry"/>
                    </mxCell>
                </object>
                <mxCell id="15" style="edgeStyle=none;html=1;entryX=0;entryY=0.5;entryDx=0;entryDy=0;entryPerimeter=0;dashed=1;dashPattern=12 12;exitX=0.5;exitY=1;exitDx=0;exitDy=0;exitPerimeter=0;strokeColor=#000000;" parent="31" source="11" target="13" edge="1">
                    <mxGeometry relative="1" as="geometry">
                        <Array as="points">
                            <mxPoint x="130" y="550"/>
                        </Array>
                    </mxGeometry>
                </mxCell>
                <mxCell id="16" value="Dados da venda&lt;br&gt;(Produtos / Cliente / Endereço)&lt;br&gt;[Banco a Banco]" style="edgeLabel;html=1;align=center;verticalAlign=middle;resizable=0;points=[];fontColor=#000000;labelBackgroundColor=#FFFFFF;container=0;" parent="15" vertex="1" connectable="0">
                    <mxGeometry x="-0.2374" y="1" relative="1" as="geometry">
                        <mxPoint as="offset"/>
                    </mxGeometry>
                </mxCell>
                <mxCell id="21" value="Cotação de Frete&lt;br&gt;[HTTP]" style="edgeStyle=none;html=1;entryX=0.5;entryY=0;entryDx=0;entryDy=0;entryPerimeter=0;dashed=1;dashPattern=12 12;strokeColor=#000000;fontColor=#000000;labelBackgroundColor=#FFFFFF;" parent="31" source="19" target="4" edge="1">
                    <mxGeometry relative="1" as="geometry">
                        <mxPoint as="offset"/>
                    </mxGeometry>
                </mxCell>
                <mxCell id="23" style="edgeStyle=none;html=1;entryX=0.5;entryY=0;entryDx=0;entryDy=0;entryPerimeter=0;dashed=1;dashPattern=12 12;exitX=0;exitY=0.5;exitDx=0;exitDy=0;exitPerimeter=0;strokeColor=#000000;" parent="31" source="19" target="11" edge="1">
                    <mxGeometry relative="1" as="geometry">
                        <Array as="points">
                            <mxPoint x="130" y="130"/>
                        </Array>
                    </mxGeometry>
                </mxCell>
                <mxCell id="24" value="Formaliza venda&lt;br&gt;(Produtos / Cliente / Endereço)&lt;br&gt;[HTTP]" style="edgeLabel;html=1;align=center;verticalAlign=middle;resizable=0;points=[];fontColor=#000000;labelBackgroundColor=#FFFFFF;container=0;" parent="23" vertex="1" connectable="0">
                    <mxGeometry x="0.145" y="-2" relative="1" as="geometry">
                        <mxPoint x="-20" y="2" as="offset"/>
                    </mxGeometry>
                </mxCell>
                <object placeholders="1" c4Name="E-commerce" c4Type="Sistema" c4Description="Catálogo de produtos para venda" label="&lt;font style=&quot;font-size: 16px&quot;&gt;&lt;b&gt;%c4Name%&lt;/b&gt;&lt;/font&gt;&lt;div&gt;[%c4Type%]&lt;/div&gt;&lt;br&gt;&lt;div&gt;&lt;font style=&quot;font-size: 11px&quot;&gt;&lt;font color=&quot;#cccccc&quot;&gt;%c4Description%&lt;/font&gt;&lt;/div&gt;" id="19">
                    <mxCell style="rounded=1;whiteSpace=wrap;html=1;labelBackgroundColor=none;fillColor=#8C8496;fontColor=#ffffff;align=center;arcSize=10;strokeColor=#736782;metaEdit=1;resizable=0;points=[[0.25,0,0],[0.5,0,0],[0.75,0,0],[1,0.25,0],[1,0.5,0],[1,0.75,0],[0.75,1,0],[0.5,1,0],[0.25,1,0],[0,0.75,0],[0,0.5,0],[0,0.25,0]];container=0;" parent="31" vertex="1">
                        <mxGeometry x="390" y="70" width="240" height="120" as="geometry"/>
                    </mxCell>
                </object>
                <mxCell id="22" value="Efetua&lt;br&gt;Compra" style="edgeStyle=none;html=1;entryX=1;entryY=0.5;entryDx=0;entryDy=0;entryPerimeter=0;dashed=1;dashPattern=12 12;exitX=-0.005;exitY=0.661;exitDx=0;exitDy=0;exitPerimeter=0;fontColor=#000000;labelBackgroundColor=#FFFFFF;strokeColor=#000000;" parent="31" source="3" target="19" edge="1">
                    <mxGeometry relative="1" as="geometry">
                        <mxPoint x="710" y="130" as="sourcePoint"/>
                    </mxGeometry>
                </mxCell>
                <mxCell id="27" value="Integração via&lt;br&gt;arquivo .txt" style="edgeStyle=none;html=1;entryX=1;entryY=0.75;entryDx=0;entryDy=0;entryPerimeter=0;dashed=1;dashPattern=12 12;strokeColor=#000000;fontColor=#000000;labelBackgroundColor=#FFFFFF;" parent="31" source="26" target="4" edge="1">
                    <mxGeometry x="-0.6129" relative="1" as="geometry">
                        <Array as="points">
                            <mxPoint x="830" y="380"/>
                        </Array>
                        <mxPoint as="offset"/>
                    </mxGeometry>
                </mxCell>
                <object placeholders="1" c4Name="Sistema Transportadora" c4Type="Sistema" c4Description="Gerencia os veículos" label="&lt;font style=&quot;font-size: 16px&quot;&gt;&lt;b&gt;%c4Name%&lt;/b&gt;&lt;/font&gt;&lt;div&gt;[%c4Type%]&lt;/div&gt;&lt;br&gt;&lt;div&gt;&lt;font style=&quot;font-size: 11px&quot;&gt;&lt;font color=&quot;#cccccc&quot;&gt;%c4Description%&lt;/font&gt;&lt;/div&gt;" id="26">
                    <mxCell style="rounded=1;whiteSpace=wrap;html=1;labelBackgroundColor=none;fillColor=#8C8496;fontColor=#ffffff;align=center;arcSize=10;strokeColor=#736782;metaEdit=1;resizable=0;points=[[0.25,0,0],[0.5,0,0],[0.75,0,0],[1,0.25,0],[1,0.5,0],[1,0.75,0],[0.75,1,0],[0.5,1,0],[0.25,1,0],[0,0.75,0],[0,0.5,0],[0,0.25,0]];container=0;" parent="31" vertex="1">
                        <mxGeometry x="710" y="490" width="240" height="120" as="geometry"/>
                    </mxCell>
                </object>
            </root>
        </mxGraphModel>
    </diagram>
</mxfile>